<svg width="24" height="24" viewBox="0 0 24 24" fill="none" xmlns="http://www.w3.org/2000/svg">
<path d="M6.966 4.859C6.7 4.859 6.491 4.897 6.339 4.973C6.19967 5.049 6.09833 5.22 6.035 5.486C5.98433 5.752 5.959 6.17633 5.959 6.759V8.621C5.959 9.10233 5.883 9.52033 5.731 9.875C5.59167 10.217 5.427 10.4957 5.237 10.711C5.047 10.9263 4.86967 11.091 4.705 11.205C4.84433 11.3063 5.009 11.4647 5.199 11.68C5.40167 11.8827 5.579 12.136 5.731 12.44C5.883 12.7313 5.959 13.0607 5.959 13.428V15.708C5.959 16.278 5.98433 16.696 6.035 16.962C6.09833 17.228 6.19967 17.399 6.339 17.475C6.491 17.551 6.7 17.589 6.966 17.589H7.669V19.907H6.168C5.81333 19.907 5.45867 19.9007 5.104 19.888C4.762 19.8753 4.44533 19.8057 4.154 19.679C3.86267 19.565 3.62833 19.3433 3.451 19.014C3.28633 18.6973 3.204 18.235 3.204 17.627V14.492C3.204 14.112 3.147 13.7573 3.033 13.428C2.919 13.086 2.748 12.8073 2.52 12.592C2.292 12.3767 2.007 12.269 1.665 12.269V10.065C2.007 10.0523 2.292 9.94467 2.52 9.742C2.748 9.52667 2.919 9.25433 3.033 8.925C3.147 8.583 3.204 8.222 3.204 7.842V4.84C3.204 4.232 3.28633 3.76967 3.451 3.453C3.61567 3.13633 3.83733 2.91467 4.116 2.788C4.40733 2.66133 4.73033 2.59167 5.085 2.579C5.43967 2.55367 5.80067 2.541 6.168 2.541H7.669V4.859H6.966ZM21.1317 11.376C21.1317 12.668 20.9734 13.8777 20.6567 15.005C20.3527 16.1323 19.96 17.133 19.4787 18.007C18.9974 18.8937 18.4844 19.622 17.9397 20.192L15.7547 19.185C16.2487 18.615 16.692 17.9437 17.0847 17.171C17.4774 16.411 17.7877 15.5497 18.0157 14.587C18.2437 13.6117 18.3577 12.5413 18.3577 11.376C18.3577 10.2107 18.2437 9.14667 18.0157 8.184C17.7877 7.20867 17.4774 6.341 17.0847 5.581C16.692 4.80833 16.2487 4.14333 15.7547 3.586L17.9397 2.56C18.4844 3.13 18.9974 3.85833 19.4787 4.745C19.96 5.63167 20.3527 6.63867 20.6567 7.766C20.9734 8.88067 21.1317 10.084 21.1317 11.376Z" fill="url(#paint0_linear_190_91)"/>
<defs>
<linearGradient id="paint0_linear_190_91" x1="21.6643" y1="3.67857" x2="5.18653" y2="23.6078" gradientUnits="userSpaceOnUse">
<stop offset="0.0001" stop-color="#00A3FF"/>
<stop offset="1" stop-color="#0054C6"/>
</linearGradient>
</defs>
</svg>
