<svg width="152" height="46" viewBox="0 0 152 46" fill="none" xmlns="http://www.w3.org/2000/svg">
<path d="M59.52 34C59.2853 34 59.104 33.936 58.976 33.808C58.848 33.6587 58.784 33.4773 58.784 33.264V12.368C58.784 12.1333 58.848 11.952 58.976 11.824C59.104 11.6747 59.2853 11.6 59.52 11.6H60.992C61.248 11.6 61.44 11.664 61.568 11.792C61.696 11.8987 61.7707 11.984 61.792 12.048L72.416 28.368V12.368C72.416 12.1333 72.48 11.952 72.608 11.824C72.736 11.6747 72.9173 11.6 73.152 11.6H74.688C74.9227 11.6 75.104 11.6747 75.232 11.824C75.3813 11.952 75.456 12.1333 75.456 12.368V33.232C75.456 33.4453 75.3813 33.6267 75.232 33.776C75.104 33.9253 74.9333 34 74.72 34H73.184C72.9493 34 72.768 33.936 72.64 33.808C72.5333 33.68 72.4587 33.5947 72.416 33.552L61.824 17.392V33.264C61.824 33.4773 61.7493 33.6587 61.6 33.808C61.472 33.936 61.2907 34 61.056 34H59.52ZM85.2268 34.32C84.1601 34.32 83.1894 34.1067 82.3148 33.68C81.4401 33.2533 80.7361 32.6773 80.2028 31.952C79.6694 31.2267 79.4028 30.4053 79.4028 29.488C79.4028 28.016 80.0001 26.8427 81.1948 25.968C82.3894 25.0933 83.9468 24.5173 85.8668 24.24L90.6348 23.568V22.64C90.6348 21.616 90.3361 20.816 89.7388 20.24C89.1628 19.664 88.2134 19.376 86.8908 19.376C85.9308 19.376 85.1521 19.568 84.5548 19.952C83.9788 20.336 83.5734 20.8267 83.3388 21.424C83.2108 21.744 82.9868 21.904 82.6668 21.904H81.2268C80.9921 21.904 80.8108 21.84 80.6828 21.712C80.5761 21.5627 80.5228 21.392 80.5228 21.2C80.5228 20.88 80.6401 20.4853 80.8748 20.016C81.1308 19.5467 81.5148 19.088 82.0268 18.64C82.5388 18.192 83.1894 17.8187 83.9788 17.52C84.7894 17.2 85.7708 17.04 86.9228 17.04C88.2028 17.04 89.2801 17.2107 90.1548 17.552C91.0294 17.872 91.7121 18.3093 92.2028 18.864C92.7148 19.4187 93.0774 20.048 93.2908 20.752C93.5254 21.456 93.6428 22.1707 93.6428 22.896V33.264C93.6428 33.4773 93.5681 33.6587 93.4188 33.808C93.2908 33.936 93.1201 34 92.9068 34H91.4348C91.2001 34 91.0188 33.936 90.8908 33.808C90.7628 33.6587 90.6988 33.4773 90.6988 33.264V31.888C90.4214 32.272 90.0481 32.656 89.5788 33.04C89.1094 33.4027 88.5228 33.712 87.8188 33.968C87.1148 34.2027 86.2508 34.32 85.2268 34.32ZM85.8988 31.92C86.7734 31.92 87.5734 31.7387 88.2988 31.376C89.0241 30.992 89.5894 30.4053 89.9948 29.616C90.4214 28.8267 90.6348 27.8347 90.6348 26.64V25.744L86.9228 26.288C85.4081 26.5013 84.2668 26.864 83.4988 27.376C82.7308 27.8667 82.3468 28.496 82.3468 29.264C82.3468 29.8613 82.5174 30.3627 82.8588 30.768C83.2214 31.152 83.6694 31.44 84.2028 31.632C84.7574 31.824 85.3228 31.92 85.8988 31.92ZM99.011 40.08C98.7977 40.08 98.6163 40.0053 98.467 39.856C98.339 39.728 98.275 39.5573 98.275 39.344V18.096C98.275 17.8827 98.339 17.712 98.467 17.584C98.6163 17.4347 98.7977 17.36 99.011 17.36H100.483C100.696 17.36 100.867 17.4347 100.995 17.584C101.144 17.712 101.219 17.8827 101.219 18.096V19.504C101.731 18.8 102.414 18.2133 103.267 17.744C104.12 17.2747 105.187 17.04 106.467 17.04C107.662 17.04 108.675 17.2427 109.507 17.648C110.36 18.0533 111.054 18.608 111.587 19.312C112.142 20.016 112.558 20.816 112.835 21.712C113.112 22.608 113.262 23.568 113.283 24.592C113.304 24.9333 113.315 25.296 113.315 25.68C113.315 26.064 113.304 26.4267 113.283 26.768C113.262 27.7707 113.112 28.7307 112.835 29.648C112.558 30.544 112.142 31.344 111.587 32.048C111.054 32.7307 110.36 33.2853 109.507 33.712C108.675 34.1173 107.662 34.32 106.467 34.32C105.23 34.32 104.184 34.096 103.331 33.648C102.499 33.1787 101.816 32.6027 101.283 31.92V39.344C101.283 39.5573 101.219 39.728 101.091 39.856C100.963 40.0053 100.782 40.08 100.547 40.08H99.011ZM105.795 31.728C106.904 31.728 107.768 31.4933 108.387 31.024C109.027 30.5333 109.486 29.904 109.763 29.136C110.04 28.3467 110.2 27.504 110.243 26.608C110.264 25.9893 110.264 25.3707 110.243 24.752C110.2 23.856 110.04 23.024 109.763 22.256C109.486 21.4667 109.027 20.8373 108.387 20.368C107.768 19.8773 106.904 19.632 105.795 19.632C104.75 19.632 103.896 19.8773 103.235 20.368C102.595 20.8587 102.115 21.488 101.795 22.256C101.496 23.0027 101.326 23.7707 101.283 24.56C101.262 24.9013 101.251 25.3067 101.251 25.776C101.251 26.2453 101.262 26.6613 101.283 27.024C101.304 27.7707 101.475 28.5067 101.795 29.232C102.136 29.9573 102.638 30.5547 103.299 31.024C103.96 31.4933 104.792 31.728 105.795 31.728ZM123.93 34.32C121.732 34.32 119.983 33.648 118.682 32.304C117.38 30.9387 116.666 29.0827 116.538 26.736C116.516 26.4587 116.506 26.1067 116.506 25.68C116.506 25.232 116.516 24.8693 116.538 24.592C116.623 23.0773 116.975 21.7547 117.594 20.624C118.212 19.472 119.055 18.5867 120.122 17.968C121.21 17.3493 122.479 17.04 123.93 17.04C125.551 17.04 126.906 17.3813 127.994 18.064C129.103 18.7467 129.946 19.7173 130.522 20.976C131.098 22.2347 131.385 23.7067 131.385 25.392V25.936C131.385 26.1707 131.311 26.352 131.162 26.48C131.034 26.608 130.863 26.672 130.65 26.672H119.578C119.578 26.6933 119.578 26.736 119.578 26.8C119.578 26.864 119.578 26.9173 119.578 26.96C119.62 27.8347 119.812 28.656 120.154 29.424C120.495 30.1707 120.986 30.7787 121.626 31.248C122.266 31.7173 123.034 31.952 123.93 31.952C124.698 31.952 125.338 31.8347 125.85 31.6C126.362 31.3653 126.778 31.1093 127.098 30.832C127.418 30.5333 127.631 30.3093 127.738 30.16C127.93 29.8827 128.079 29.7227 128.186 29.68C128.292 29.616 128.463 29.584 128.698 29.584H130.234C130.447 29.584 130.618 29.648 130.746 29.776C130.895 29.8827 130.959 30.0427 130.938 30.256C130.916 30.576 130.746 30.9707 130.426 31.44C130.106 31.888 129.647 32.336 129.05 32.784C128.452 33.232 127.727 33.6053 126.874 33.904C126.02 34.1813 125.039 34.32 123.93 34.32ZM119.578 24.464H128.346V24.368C128.346 23.408 128.164 22.5547 127.802 21.808C127.46 21.0613 126.959 20.4747 126.298 20.048C125.636 19.6 124.847 19.376 123.93 19.376C123.012 19.376 122.223 19.6 121.562 20.048C120.922 20.4747 120.431 21.0613 120.09 21.808C119.748 22.5547 119.578 23.408 119.578 24.368V24.464ZM141.292 34.32C140.118 34.32 139.105 34.1173 138.252 33.712C137.398 33.2853 136.694 32.72 136.14 32.016C135.606 31.2907 135.201 30.4693 134.924 29.552C134.668 28.6347 134.518 27.664 134.476 26.64C134.454 26.2987 134.444 25.9787 134.444 25.68C134.444 25.3813 134.454 25.0613 134.476 24.72C134.518 23.7173 134.668 22.7573 134.924 21.84C135.201 20.9227 135.606 20.1013 136.14 19.376C136.694 18.6507 137.398 18.0853 138.252 17.68C139.105 17.2533 140.118 17.04 141.292 17.04C142.55 17.04 143.596 17.264 144.428 17.712C145.26 18.16 145.942 18.7147 146.476 19.376V12.016C146.476 11.8027 146.54 11.632 146.668 11.504C146.817 11.3547 146.998 11.28 147.212 11.28H148.748C148.961 11.28 149.132 11.3547 149.26 11.504C149.409 11.632 149.484 11.8027 149.484 12.016V33.264C149.484 33.4773 149.409 33.6587 149.26 33.808C149.132 33.936 148.961 34 148.748 34H147.308C147.073 34 146.892 33.936 146.764 33.808C146.636 33.6587 146.572 33.4773 146.572 33.264V31.92C146.038 32.6027 145.345 33.1787 144.492 33.648C143.638 34.096 142.572 34.32 141.292 34.32ZM141.964 31.728C143.03 31.728 143.884 31.4827 144.524 30.992C145.164 30.5013 145.644 29.8827 145.964 29.136C146.284 28.368 146.454 27.5893 146.476 26.8C146.497 26.4587 146.508 26.0533 146.508 25.584C146.508 25.0933 146.497 24.6773 146.476 24.336C146.454 23.5893 146.273 22.8533 145.932 22.128C145.612 21.4027 145.121 20.8053 144.46 20.336C143.82 19.8667 142.988 19.632 141.964 19.632C140.876 19.632 140.012 19.8773 139.372 20.368C138.732 20.8373 138.273 21.4667 137.996 22.256C137.718 23.024 137.558 23.856 137.516 24.752C137.494 25.3707 137.494 25.9893 137.516 26.608C137.558 27.504 137.718 28.3467 137.996 29.136C138.273 29.904 138.732 30.5333 139.372 31.024C140.012 31.4933 140.876 31.728 141.964 31.728Z" fill="url(#paint0_linear_190_78)"/>
<g clip-path="url(#clip0_190_78)">
<path d="M20.0276 11.7393L29.3371 17.353L20.0276 22.6741L10.2974 17.353L20.0276 11.7393Z" fill="url(#paint1_linear_190_78)"/>
<path d="M10.2974 17.5542L20.0276 22.8571L19.9727 33.6822L10.2974 28.5622V17.5542Z" fill="url(#paint2_linear_190_78)"/>
<path d="M20.0273 22.8571L29.4466 17.5542L29.721 28.5622L20.1554 33.8833L20.0273 22.8571Z" fill="url(#paint3_linear_190_78)"/>
<path d="M39.3782 11.0629L39.2319 10.9714L29.9406 5.65029L20.2104 0.0731429L20.0824 0L19.9726 0.0548571C19.7899 0.120116 19.6125 0.199597 19.4422 0.292571L10.9557 5.248L0.457316 11.392C0.0183587 11.5931 0.0366486 12.0503 0.0366486 12.3246V12.5257L0.0183587 28.1051L6.88556e-05 33.8834C-0.018221 34.2309 0.128098 34.5417 0.384157 34.6514L12.4555 41.5086L19.5885 45.568C19.7349 45.6594 19.8995 45.7143 20.0458 45.7143C20.171 45.7199 20.2941 45.681 20.3933 45.6046L30.7088 39.6617L39.4879 34.6149C39.8172 34.4686 40.0184 34.1394 39.9635 33.8286L40.0001 11.9406C40.0549 11.4286 39.6343 11.1909 39.3782 11.0629ZM20.0092 12.4526L28.514 17.3897L20.0275 22.272L17.1377 20.6446L11.4313 17.408L20.0092 12.4526ZM29.6663 16.7131L20.4482 11.3554C20.3269 11.2662 20.181 11.2165 20.0304 11.2132C19.8798 11.21 19.7319 11.2532 19.6068 11.3371L10.279 16.7497L1.79248 11.9406L7.7184 8.48457L20.0275 1.29829L31.3489 7.78972L38.2625 11.7577L29.6663 16.7131ZM1.2072 12.9463L9.65713 17.7371L9.82174 28.2697C9.80345 28.5989 9.96806 28.8914 10.2241 29.0194L15.8391 32.2377L19.4422 34.304V44.16L1.17062 33.7737L1.2072 12.9463ZM10.8277 18.3954L19.4605 23.2777L19.4422 32.9691L10.9923 28.1234L10.8277 18.3954ZM20.6128 34.3223L24.2159 32.2377L29.776 29.056L29.8309 29.0194C29.9406 28.9646 30.0687 28.8731 30.1601 28.7451L30.215 28.672V28.5806L30.1967 21.5954V17.7554L38.8295 12.7634V21.2663L38.8112 33.664L27.2337 40.32L20.5945 44.1417L20.6128 34.3223ZM20.6128 32.9874V23.2777L29.1176 18.3771V28.1051L20.6128 32.9874Z" fill="#FEFBFB"/>
<path d="M19.7716 2.43185C19.5155 2.46842 19.296 2.63299 19.1863 2.85242C19.0765 3.10842 19.0948 3.3827 19.2229 3.56556C19.3692 3.78499 19.6069 3.91299 19.8813 3.91299C19.9304 3.90959 19.9792 3.90349 20.0276 3.8947C20.3385 3.85813 20.5763 3.6387 20.6312 3.36442C20.6692 3.24454 20.674 3.1166 20.645 2.99423C20.616 2.87186 20.5543 2.75965 20.4666 2.66956C20.3808 2.57366 20.2719 2.50143 20.1502 2.4598C20.0285 2.41816 19.8981 2.40854 19.7716 2.43185V2.43185ZM20.2654 5.63185C19.991 5.48556 19.6801 5.50385 19.4606 5.65013C19.2594 5.75985 19.1314 5.97927 19.0948 6.21699C19.0765 6.47299 19.1863 6.69242 19.3326 6.82042C19.4032 6.88756 19.4864 6.93994 19.5775 6.97448C19.6686 7.00902 19.7657 7.02503 19.863 7.02156C19.9766 7.01964 20.0885 6.99476 20.1922 6.94842C20.4849 6.8387 20.6495 6.56442 20.6495 6.29013C20.6678 6.03413 20.5032 5.77813 20.2654 5.63185ZM20.2837 8.77699C20.0276 8.61242 19.7167 8.61242 19.4789 8.74042C19.2594 8.85013 19.1131 9.06956 19.0948 9.32556C19.0765 9.58156 19.1863 9.85585 19.3875 9.98385C19.5247 10.0853 19.6925 10.1369 19.863 10.1301C19.9766 10.1282 20.0885 10.1033 20.1922 10.057C20.3166 10.0073 20.4244 9.92358 20.5034 9.81546C20.5824 9.70734 20.6294 9.57917 20.6389 9.44562C20.6484 9.31207 20.6202 9.17853 20.5574 9.06028C20.4945 8.94204 20.3997 8.84386 20.2837 8.77699V8.77699ZM7.86483 29.2753C7.59048 29.3484 7.3893 29.5678 7.33443 29.8421C7.27956 30.1347 7.37101 30.409 7.57219 30.5736C7.69897 30.6831 7.8619 30.7418 8.02944 30.7381C8.08484 30.7384 8.14008 30.7323 8.19405 30.7198C8.43182 30.665 8.63301 30.5004 8.70617 30.2993C8.8342 30.0433 8.79762 29.7324 8.57814 29.4947C8.49385 29.3922 8.3813 29.3168 8.25448 29.2778C8.12765 29.2388 7.99215 29.2379 7.86483 29.2753V29.2753ZM31.4954 30.7564C31.5578 30.7532 31.6194 30.7409 31.6783 30.7198C31.916 30.665 32.1172 30.5004 32.1721 30.3176C32.3001 30.0433 32.2453 29.7141 32.0441 29.4764C31.9519 29.3741 31.832 29.3006 31.6989 29.2649C31.5658 29.2292 31.4253 29.2328 31.2942 29.2753C31.0381 29.3484 30.8369 29.5678 30.7821 29.8421C30.7272 30.1347 30.8369 30.409 31.0381 30.5736C31.1479 30.7016 31.3125 30.7564 31.4954 30.7564ZM5.19451 30.8478C4.92016 30.9393 4.73726 31.1953 4.71897 31.4878C4.68239 31.7987 4.82871 32.0913 5.06648 32.2193C5.17577 32.2893 5.30249 32.3273 5.43228 32.329C5.5399 32.3267 5.64583 32.3017 5.7432 32.2558C5.98097 32.1461 6.14558 31.9267 6.16387 31.7256C6.21874 31.4513 6.109 31.1587 5.88952 30.9758C5.79783 30.8907 5.68374 30.8334 5.56065 30.8107C5.43755 30.7881 5.31054 30.8009 5.19451 30.8478V30.8478ZM34.0925 32.3107C34.1794 32.3142 34.2662 32.3018 34.3486 32.2741C34.6047 32.1827 34.7876 31.9633 34.8058 31.7438C34.879 31.4696 34.8058 31.1953 34.5864 30.9941C34.491 30.9027 34.3714 30.8404 34.2419 30.8145C34.1123 30.7886 33.978 30.8002 33.8548 30.8478C33.7313 30.8989 33.6229 30.9805 33.5398 31.085C33.4566 31.1895 33.4014 31.3135 33.3795 31.4452C33.3575 31.577 33.3695 31.7121 33.4142 31.8379C33.459 31.9638 33.5351 32.0761 33.6353 32.1644C33.7669 32.2632 33.928 32.3148 34.0925 32.3107ZM3.18262 32.4753C2.96314 32.3473 2.68879 32.3473 2.4876 32.4753C2.24983 32.6033 2.10352 32.841 2.10352 33.1336C2.10352 33.4261 2.24983 33.6821 2.4876 33.7918C2.58703 33.8516 2.70082 33.8832 2.81682 33.8833C2.95863 33.8855 3.09815 33.8474 3.2192 33.7736C3.45697 33.609 3.585 33.3347 3.56671 33.097C3.56671 32.841 3.42039 32.6033 3.18262 32.457V32.4753ZM36.269 33.7187C36.3902 33.8255 36.5464 33.8841 36.708 33.8833C36.8022 33.8833 36.8954 33.8646 36.9823 33.8284C37.2384 33.7187 37.4213 33.4627 37.4396 33.2433C37.4945 32.9507 37.3664 32.6581 37.1104 32.4936C36.8726 32.329 36.58 32.329 36.3605 32.4753C36.2533 32.541 36.1638 32.6321 36.1 32.7405C36.0363 32.8489 36.0001 32.9713 35.9947 33.097C35.9764 33.353 36.0861 33.5907 36.269 33.7187Z" fill="#FEFBFB"/>
</g>
<defs>
<linearGradient id="paint0_linear_190_78" x1="146.171" y1="5.35714" x2="123.934" y2="64.0368" gradientUnits="userSpaceOnUse">
<stop offset="0.0001" stop-color="#00A3FF"/>
<stop offset="1" stop-color="#0054C6"/>
</linearGradient>
<linearGradient id="paint1_linear_190_78" x1="28.1812" y1="12.1298" x2="20.0284" y2="26.9577" gradientUnits="userSpaceOnUse">
<stop offset="0.0001" stop-color="#00A3FF"/>
<stop offset="1" stop-color="#0054C6"/>
</linearGradient>
<linearGradient id="paint2_linear_190_78" x1="19.4368" y1="18.1302" x2="6.59016" y2="26.2259" gradientUnits="userSpaceOnUse">
<stop offset="0.0001" stop-color="#00A3FF"/>
<stop offset="1" stop-color="#0054C6"/>
</linearGradient>
<linearGradient id="paint3_linear_190_78" x1="29.1324" y1="18.1374" x2="16.2173" y2="26.1458" gradientUnits="userSpaceOnUse">
<stop offset="0.0001" stop-color="#00A3FF"/>
<stop offset="1" stop-color="#0054C6"/>
</linearGradient>
<clipPath id="clip0_190_78">
<rect width="40" height="45.7143" fill="white"/>
</clipPath>
</defs>
</svg>
